# xmcd
#
# Track frame offsets: 
#        150
#        15064
#        27614
#        41061
#        61893
#        76696
#        91684
#        106778
#        121825
#        133265
#        151225
#        166743
#
# Disc length: 2362 seconds
#
# Revision: 0
# Processed by: cddbd v1.4PL0 Copyright (c) Steve Scherf et al.
# Submitted via: ExactAudioCopy v0.95a2
#
DISCID=7e09380c
DTITLE=Shadow Ridge - Out Of Mind
DYEAR=2002
DGENRE=Bluegrass
TTITLE0=Come Back To Me
TTITLE1=Water Roll Under
TTITLE2=Think Of What You Done
TTITLE3=Willie Roy
TTITLE4=He Has Not Moved
TTITLE5=Out Of My Mind
TTITLE6=The Cuckoo Bird
TTITLE7=She Lets Me Die A Little More
TTITLE8=I Know You're Married
TTITLE9=Listen To Your Heart
TTITLE10=Heaven
TTITLE11=As Long As You Love Me
EXTD=
EXTT0=
EXTT1=
EXTT2=
EXTT3=
EXTT4=
EXTT5=
EXTT6=
EXTT7=
EXTT8=
EXTT9=
EXTT10=
EXTT11=
PLAYORDER=
